<?xml version="1.0" standalone="no"?>
<!DOCTYPE svg PUBLIC "-//W3C//DTD SVG 20010904//EN"
 "http://www.w3.org/TR/2001/REC-SVG-20010904/DTD/svg10.dtd">
<svg version="1.0" xmlns="http://www.w3.org/2000/svg"
 width="402.000000pt" height="111.000000pt" viewBox="0 0 402.000000 111.000000"
 preserveAspectRatio="xMidYMid meet">

<g transform="translate(0.000000,111.000000) scale(0.100000,-0.100000)"
fill="#000000" stroke="none">
<path d="M2105 842 c-63 -22 -118 -63 -156 -118 l-29 -43 37 15 c45 19 141 15
195 -9 l37 -16 -16 -41 c-12 -31 -20 -39 -32 -34 -43 18 -121 36 -135 31 -9
-4 -16 -15 -16 -26 0 -18 37 -38 126 -65 12 -4 29 -15 39 -26 17 -19 18 -18
39 23 29 57 76 87 138 87 84 0 142 -46 154 -122 6 -38 7 -38 26 -21 13 12 41
19 89 21 72 4 80 10 53 36 -19 19 -46 20 -96 2 -36 -13 -37 -13 -48 15 -15 36
-10 44 45 59 69 19 151 9 183 -24 26 -25 27 -32 30 -146 l4 -120 -51 0 c-28 0
-51 4 -51 9 0 5 -19 2 -42 -6 -79 -27 -148 12 -148 84 l0 33 -100 0 c-85 0
-99 -2 -94 -15 14 -35 74 -46 111 -20 19 13 23 13 47 -6 34 -27 33 -33 -9 -59
-72 -44 -195 -23 -234 41 l-13 23 -14 -26 c-33 -63 -159 -80 -258 -35 -31 14
-56 31 -56 37 0 18 30 72 38 68 65 -35 108 -49 140 -46 32 3 37 6 37 28 0 21
-9 27 -79 51 -86 29 -115 55 -116 104 l-1 30 -22 -37 c-12 -21 -24 -38 -27
-38 -3 1 -14 15 -25 33 -27 42 -59 57 -126 57 -94 0 -159 -63 -159 -155 0 -85
55 -145 140 -153 46 -4 52 -8 65 -38 7 -18 22 -37 33 -43 14 -8 276 -11 854
-11 l833 0 52 24 c75 35 111 78 244 290 134 213 141 236 90 287 l-29 29 -824
0 c-754 -1 -827 -2 -873 -18z m1275 -182 c0 -38 3 -70 8 -70 4 0 16 7 26 15
26 20 96 19 125 -1 38 -27 51 -74 51 -184 l0 -100 -55 0 -54 0 -3 103 -3 102
-35 3 c-50 5 -60 -15 -60 -120 l0 -88 -50 0 -50 0 0 205 0 205 50 0 50 0 0
-70z m-480 -61 l0 -20 26 20 c15 12 37 21 50 21 20 0 24 -5 24 -32 0 -18 4
-28 8 -22 4 6 23 21 42 33 58 35 147 26 197 -21 l23 -21 -36 -25 c-33 -22 -37
-22 -53 -8 -23 21 -60 20 -83 -1 -21 -19 -24 -81 -5 -107 17 -23 63 -24 85 -3
14 15 19 14 53 -5 43 -24 42 -38 -7 -69 -45 -28 -130 -29 -175 -2 -49 28 -73
76 -72 140 1 46 -1 53 -18 53 -10 0 -28 -9 -39 -20 -17 -17 -20 -33 -20 -105
l0 -85 -50 0 -50 0 0 150 0 150 50 0 c44 0 50 -3 50 -21z m-1182 -45 c12 -8
22 -24 22 -35 0 -17 -7 -19 -60 -19 -66 0 -77 13 -40 50 24 24 48 25 78 4z
m52 -113 c0 -18 -53 -51 -81 -51 -28 0 -69 30 -69 50 0 6 32 10 75 10 41 0 75
-4 75 -9z"/>
<path d="M1412 758 c-7 -7 -12 -24 -12 -38 0 -53 57 -69 86 -25 24 36 6 75
-34 75 -15 0 -33 -5 -40 -12z"/>
<path d="M270 520 l0 -200 45 0 45 0 0 127 c0 69 3 123 7 120 3 -4 25 -51 49
-104 41 -94 44 -98 76 -101 l33 -3 45 106 c24 58 48 105 52 105 4 0 8 -56 8
-125 l0 -125 40 0 40 0 0 200 0 201 -55 -3 -56 -3 -51 -113 c-60 -131 -53
-132 -119 17 l-44 101 -57 0 -58 0 0 -200z"/>
<path d="M814 611 c-55 -33 -74 -67 -74 -131 0 -100 62 -160 165 -160 62 0
113 25 143 70 20 30 23 45 20 97 -4 67 -25 100 -80 129 -40 21 -136 18 -174
-5z m126 -61 c28 -15 43 -69 29 -107 -21 -63 -103 -65 -129 -4 -30 73 35 146
100 111z"/>
<path d="M1062 621 c2 -4 28 -74 58 -155 l54 -146 51 0 50 0 55 147 c30 80 57
150 58 154 2 5 -18 9 -46 9 l-49 0 -28 -97 c-15 -54 -31 -102 -36 -107 -6 -7
-25 49 -65 187 -4 13 -16 17 -56 17 -27 0 -48 -4 -46 -9z"/>
<path d="M1400 475 l0 -155 45 0 45 0 0 155 0 155 -45 0 -45 0 0 -155z"/>
<path d="M2297 532 c-26 -28 -21 -32 38 -32 59 0 60 1 45 31 -14 25 -61 25
-83 1z"/>
<path d="M2592 439 c-27 -10 -26 -36 1 -53 23 -15 71 11 75 42 3 18 -1 22 -25
21 -15 0 -38 -4 -51 -10z"/>
</g>
</svg>
